<svg id="Ebene_1" data-name="Ebene 1" xmlns="http://www.w3.org/2000/svg" viewBox="0 0 519 415"><defs><style>.cls-1{fill:#4a9328;}.cls-2,.cls-5{opacity:0.1;}.cls-2{isolation:isolate;}.cls-3{fill:#fff;}.cls-4{fill:#4a9334;}.cls-6{fill:#ffa8a7;}.cls-7{fill:#e6e6e6;}.cls-8{fill:#263238;}.cls-9{fill:#37474f;}.cls-10{fill:#f5f5f5;}.cls-11{opacity:0.5;}.cls-12{fill:#f28f8f;}.cls-13{fill:#455a64;}.cls-14{fill:#9e6767;}.cls-15{fill:#874c4c;}</style></defs><title>Zeichenfläche 1</title><g id="Page-1"><g id="Desktop-HD"><g id="Plants"><g id="Plants-2"><g id="_Grupo_" data-name=" Grupo "><g id="_Grupo_2" data-name=" Grupo 2"><g id="_Grupo_3" data-name=" Grupo 3"><path id="_Trazado_4" data-name=" Trazado 4" class="cls-1" d="M90.75,329c-1.08-13.45-13-40.51-28.38-56.88S24.14,244.77,9,251.34c-14,6.16-11,25.07,7.63,36.27s46.26,24.92,55.74,46.1l18.35,25.43Z"/><path id="_Trazado_5" data-name=" Trazado 5" class="cls-2" d="M90.75,329c-1.08-13.45-13-40.51-28.38-56.88S24.14,244.77,9,251.34c-14,6.16-11,25.07,7.63,36.27s46.26,24.92,55.74,46.1l18.35,25.43Z"/></g><g id="_Grupo_4" data-name=" Grupo 4"><path id="_Trazado_6" data-name=" Trazado 6" class="cls-3" d="M93.21,347.27a1,1,0,0,1-.94-.72c-12.66-45.16-52.7-79.48-75.48-85.92a1,1,0,0,1,.53-1.91c23.26,6.59,64,41.45,76.88,87.3a1,1,0,0,1-.17.85,1,1,0,0,1-.78.4Z"/></g></g><g id="_Grupo_5" data-name=" Grupo 5"><g id="_Grupo_6" data-name=" Grupo 6"><path id="_Trazado_7" data-name=" Trazado 7" class="cls-1" d="M88.74,377.14c-2.8-7.38-13-19.1-28.69-28.21-17.39-10.06-38.67-13.61-44.19-22.1-6.62-10.19,1.53-21,18.62-20.23s48.72,21.52,56.27,56Z"/></g><g id="_Grupo_7" data-name=" Grupo 7"><path id="_Trazado_8" data-name=" Trazado 8" class="cls-3" d="M91.38,369a1,1,0,0,1-.89-.57c-17.2-38.19-48.23-49.56-62.24-50.26a1,1,0,0,1-.82-.54,1,1,0,0,1,.92-1.42c15.49.75,46.38,12.43,63.92,51.4a1,1,0,0,1,0,.76,1,1,0,0,1-.51.55,1.15,1.15,0,0,1-.41.08Z"/></g></g></g><g id="_Grupo_8" data-name=" Grupo 8"><g id="_Grupo_9" data-name=" Grupo 9"><path id="_Trazado_9" data-name=" Trazado 9" class="cls-4" d="M437.36,330.74c.94-11.67,6.26-30.82,19.81-49,14.48-19.53,32.15-31.74,45.27-26C514.65,261,510,277.91,489,294.58c-14.75,11.7-30.06,26.92-38.29,45.3l-13.34,23.4Z"/></g><g id="_Grupo_10" data-name=" Grupo 10" class="cls-5"><path id="_Trazado_10" data-name=" Trazado 10" d="M437.36,330.74c.94-11.67,6.26-30.82,19.81-49,14.48-19.53,32.15-31.74,45.27-26C514.65,261,510,277.91,489,294.58c-14.75,11.7-30.06,26.92-38.29,45.3l-13.34,23.4Z"/></g><g id="_Grupo_11" data-name=" Grupo 11"><path id="_Trazado_11" data-name=" Trazado 11" class="cls-3" d="M438.53,339.63a.84.84,0,0,0,.79-.55C451.05,306.74,475.45,274,496.1,263a.83.83,0,0,0,.41-.49.81.81,0,0,0-.07-.63.84.84,0,0,0-.49-.4.81.81,0,0,0-.63.07c-21,11.2-45.71,44.33-57.55,77a.81.81,0,0,0,0,.63.8.8,0,0,0,.47.43Z"/></g><g id="_Grupo_12" data-name=" Grupo 12"><path id="_Trazado_12" data-name=" Trazado 12" class="cls-1" d="M438.53,370.6a49.11,49.11,0,0,0,23.36,10c14.73,2.34,21.23-4.72,21.23-4.72s-5.81-13.82-14.17-17.7c0,0,14.18,2.88,25.54,10.49,0,0,9,.14,12.59-13.6,0,0-5.33-8.28-23.2-12.75,0,0,10.88-2.8,26.57,1.27,1.17.47,6.17-17.31,7.7-25.51s-1.78-8.11-8.15-9.8-28.1-2.8-32.15.74-6,15.54-6,15.54-3.82-6.81-2.91-12.88a22.65,22.65,0,0,0-13.56.33c-7.17,2.5-6.71,6-6.71,11.2a55.29,55.29,0,0,0,2.14,15.56s-4.95-4.28-5.12-20.1c0,0-9.68,8.31-13.57,15.41S429.2,360,438.53,370.6Z"/><g id="_Grupo_13" data-name=" Grupo 13"><path id="_Trazado_13" data-name=" Trazado 13" class="cls-3" d="M438.53,371.44a.86.86,0,0,0,.76-.47c11.87-24.73,56-53.46,71.84-56.54a.85.85,0,0,0,.66-1,.82.82,0,0,0-1-.64c-16.09,3.12-61,32.31-73,57.43a.86.86,0,0,0,0,.63.8.8,0,0,0,.43.47.67.67,0,0,0,.34.1Z"/></g></g></g></g></g><g id="Character_2" data-name="Character 2"><g id="Character_3" data-name="Character 3"><g id="_Grupo_14" data-name=" Grupo 14"><g id="_Grupo_15" data-name=" Grupo 15"><polygon id="_Trazado_14" data-name=" Trazado 14" class="cls-6" points="234.51 94.87 220.59 142.51 235.8 150.38 247.66 110.68 234.51 94.87"/><path id="_Trazado_15" data-name=" Trazado 15" class="cls-7" d="M250,76.12c-7.38.8-13.83,7.48-16.79,18s-6.95,26.77-6.95,26.77,8.09,8.9,19.07,6.21Z"/><g id="_Grupo_16" data-name=" Grupo 16"><path id="_Trazado_16" data-name=" Trazado 16" class="cls-8" d="M231.05,352.24v-2c-.82,2.35-4.65,12.43-10.26,17.42-4.48,4-10.55,8.55-12.15,13s8.26,6.39,12.38,5.72c4.8-.77,11-3.4,14.46-7.51,2.42-2.9,4-6.34,5.71-8.62s5.66-4.78,6.62-7.42c.53-1.4,0-4.68-.68-7.39s-1.26-5.24-2.11-5V352c-1,1.12-3.85,2.2-7,2.27C236,354.3,231,353.81,231.05,352.24Z"/></g><g id="_Grupo_17" data-name=" Grupo 17"><path id="_Trazado_17" data-name=" Trazado 17" class="cls-6" d="M216.77,371.15c1.39-1.2,2.78-2.38,4-3.51,3.92-3.48,7-9.47,8.73-13.55a19.5,19.5,0,0,0,1.58-7.37l.13-8,14.65-.68L245,352h0v.34h-.09c-.71,2.91-7.24,10.57-11,15.58-2.49,3.35-7.2,7.59-12.75,8.25C216,376.81,213.3,375.11,216.77,371.15Z"/></g><g id="_Grupo_18" data-name=" Grupo 18"><path id="_Trazado_18" data-name=" Trazado 18" class="cls-8" d="M302.5,354.8l-.53-1.93c-.14,2.48-1,13.24-5,19.58-3.19,5.08-7.73,11.19-8,15.94s9.74,3.79,13.5,2c4.39-2.11,9.64-6.41,11.78-11.32,1.5-3.45,2-7.2,3.05-9.87s4.1-6.19,4.29-9c.09-1.55-1.39-4.47-2.78-6.89s-2.69-4.67-3.44-4.2c.07.3.41,1.49.41,1.49-.69,1.39-3.09,3.18-6.11,4.19C307.79,355.39,302.9,356.32,302.5,354.8Z"/></g><g id="_Grupo_19" data-name=" Grupo 19"><path id="_Trazado_19" data-name=" Trazado 19" class="cls-6" d="M294.1,377c1-1.55,2-3.07,2.91-4.5,2.78-4.47,4-11.06,4.58-15.48a19.52,19.52,0,0,0-.55-7.53l-2.12-7.72L312.38,338l3.46,12.58h0l.08.34h0c.13,3-4,12.2-6.17,18.06-1.39,3.93-4.77,9.32-9.92,11.53C294.91,382.66,291.88,381.78,294.1,377Z"/></g><g id="_Grupo_20" data-name=" Grupo 20"><path id="_Trazado_20" data-name=" Trazado 20" class="cls-9" d="M295,149.53c7.76,10,9.16,20.36,7.47,49.64s-2.23,53.77-1.8,55.42,6.73,15.09,9,26c2.71,12.71,3.38,59.89,3.38,59.89a14,14,0,0,1-13.5,3.62s-22.46-76-24.65-82.52-16-76-16-76l2.1-39.16Z"/><path id="_Trazado_21" data-name=" Trazado 21" class="cls-9" d="M235.7,183.22c1.19-13.52,4.06-36.95,4.06-36.95l34.37-2c5.56,8.73,3.14,23.25,1.62,36.37L256.1,258c.4,3.7,3.79,11.56,0,31.49C251.93,311.77,246,341.08,246,341.08s-7.4,3.43-14.81.29c0,0-2.78-70.5-1-89.76C232.2,230.79,234.9,192.47,235.7,183.22Z"/><path id="_Trazado_22" data-name=" Trazado 22" class="cls-8" d="M264.94,216.05l-5.56-28.39a60.48,60.48,0,0,1-14-7.21,42.88,42.88,0,0,0,9.81,9.11Z"/></g><path id="_Trazado_23" data-name=" Trazado 23" class="cls-8" d="M235.8,71.81h27.68a34,34,0,0,0,33.86-34.07h0a31.06,31.06,0,0,0-9-21.89,30.64,30.64,0,0,0-21.75-9.07h0a30.87,30.87,0,0,0-30.78,31Z"/><path id="_Trazado_24" data-name=" Trazado 24" class="cls-6" d="M292.18,77.1c5.34.26,9.27,1.27,12.9,11.83s11.19,51.09,8.66,55.31l-16.87-7.16-4.17-22.25C283.09,106.59,283.63,80.06,292.18,77.1Z"/><g id="_Grupo_21" data-name=" Grupo 21"><path id="_Trazado_25" data-name=" Trazado 25" class="cls-10" d="M241.93,124.3c-.85,7.9-4,37.08-4,37.08,25.89,13.9,58,4.7,62.94-1-4.45-14.75-9.24-23.14-12.91-27.07l4.67-18.44s-11.57-16.64-.45-37.76l-13.73-1.13-20.17-.59c-4.83.27-8.26.74-8.26.74-3.1,2.91-8,10.9-11.12,19C236.86,100.4,234.66,108.78,241.93,124.3Z"/></g><g id="_Grupo_22" data-name=" Grupo 22"><path id="_Trazado_26" data-name=" Trazado 26" class="cls-7" d="M292.18,77.1c6.08-.35,9.73,1.16,14.11,11s7.92,33.79,7.92,33.79-3.71,7.59-22.06,5.44l-2.78-16.65S281.28,93.36,292.18,77.1Z"/></g><path id="_Trazado_27" data-name=" Trazado 27" class="cls-7" d="M290.28,124.1c-.22.91-6.3,9-9.27,10.89s5.28,4.53,6.43,9.25c2.35,9.54-4.47,19.84-27.65,20.47-5.47.13-5.71,1.31-2.87,3,20.58,3.41,40.2-3,43.95-7.36-4.45-14.75-9.24-23.14-12.91-27.07Z"/><g id="_Grupo_23" data-name=" Grupo 23"><path id="_Trazado_28" data-name=" Trazado 28" class="cls-6" d="M246.8,20.26c-3.26,1.93-7.27,10.15-6.88,27.4.34,14.61,5,18.18,7.4,19.27s7,.41,11.36-.34v8.77A7,7,0,0,0,261.46,80c3.6,2.28,7.88,1.4,10.29.55C277,78.62,278.1,76,278.1,76L278,55.83s2.6,2.56,7-1.4c3.66-3.21,4.9-8.62,2.05-11.53a6.34,6.34,0,0,0-10.12,2s-2.6.21-5.2-4.64c0,0,.08-13.2-2.78-14.93C259.63,20,253.05,20.26,246.8,20.26Z"/></g><g id="_Grupo_24" data-name=" Grupo 24"><path id="_Trazado_29" data-name=" Trazado 29" class="cls-8" d="M256.14,43.06a1.82,1.82,0,1,0,1.92-1.82,1.89,1.89,0,0,0-1.92,1.82Z"/></g><g id="_Grupo_25" data-name=" Grupo 25" class="cls-11"><path id="_Trazado_30" data-name=" Trazado 30" class="cls-12" d="M255.65,56.37l-4.24,1.4a2.21,2.21,0,0,0,1.07,1.36,2.13,2.13,0,0,0,1.71.16,2.35,2.35,0,0,0,1.46-2.92Z"/></g><g id="_Grupo_26" data-name=" Grupo 26"><path id="_Trazado_31" data-name=" Trazado 31" class="cls-8" d="M242.17,37.32l3.7-2.57a2.16,2.16,0,0,0-1.4-1,2.09,2.09,0,0,0-1.66.35,2.38,2.38,0,0,0-.64,3.21Z"/></g><g id="_Grupo_27" data-name=" Grupo 27"><path id="_Trazado_32" data-name=" Trazado 32" class="cls-8" d="M258.68,36.61l4.17,1.62a2.14,2.14,0,0,0,0-1.72,2.17,2.17,0,0,0-1.24-1.19,2.36,2.36,0,0,0-3,1.29Z"/></g><g id="_Grupo_28" data-name=" Grupo 28"><path id="_Trazado_33" data-name=" Trazado 33" class="cls-8" d="M241.35,42.67a1.86,1.86,0,1,0,.59-1.32,1.84,1.84,0,0,0-.59,1.32Z"/></g><g id="_Grupo_29" data-name=" Grupo 29" class="cls-11"><polygon id="_Trazado_34" data-name=" Trazado 34" class="cls-12" points="250.63 41.62 250.34 52.68 244.56 50.88 250.63 41.62"/></g><g id="_Grupo_30" data-name=" Grupo 30" class="cls-11"><path id="_Trazado_35" data-name=" Trazado 35" class="cls-12" d="M258.68,66.59c4.67-.61,14.29-3.39,15.78-7.21a9.91,9.91,0,0,1-3.37,4.87c-2.87,2.47-12.41,5.27-12.41,5.27Z"/></g><path id="_Trazado_36" data-name=" Trazado 36" class="cls-8" d="M271,8.43l.7-8.11a3.9,3.9,0,0,0-4.44,3.55A4.19,4.19,0,0,0,271,8.43Z"/><path id="_Trazado_37" data-name=" Trazado 37" class="cls-8" d="M271.46,9.25,278,4.44a3.92,3.92,0,0,0-2.56-1.7,3.87,3.87,0,0,0-3,.67,4.31,4.31,0,0,0-1,5.84Z"/><path id="_Trazado_38" data-name=" Trazado 38" class="cls-8" d="M276.93,45v7.72h0a5.2,5.2,0,0,1-3.68-1.53,5.28,5.28,0,0,1-1.52-3.7V40.39Z"/><path id="_Trazado_39" data-name=" Trazado 39" class="cls-8" d="M256.14,8.61h0a25.73,25.73,0,0,0-18.27,7.61A26,26,0,0,0,230.3,34.6V38H243a11.79,11.79,0,0,0,11.64-10.24h0L255.07,38h0a9.37,9.37,0,0,0,9.31-8.59l.15-1.68h0a11.16,11.16,0,0,0,11,10.27h1.11L278,19.6Z"/><path id="_Trazado_compuesto_" data-name=" Trazado compuesto " class="cls-13" d="M281,41.52H266.54a6.09,6.09,0,0,0-5.94-4.84h-.93a6.07,6.07,0,0,0-5.56,3.78,5.2,5.2,0,0,0-3.53-1.56,4.53,4.53,0,0,0-3.13.94,6,6,0,0,0-5.28-3.16h-.93a6.1,6.1,0,0,0,0,12.19h.93a6,6,0,0,0,4.28-1.78,6.11,6.11,0,0,0,1.78-4.31,6,6,0,0,0-.35-1.93,3.32,3.32,0,0,1,2.64-.91,4,4,0,0,1,3.21,1.63h0a6.43,6.43,0,0,0-.12,1.24,6.08,6.08,0,0,0,6.06,6.09h.93a6.08,6.08,0,0,0,6.06-6.09v-.23H279A7,7,0,0,1,281,41.52Zm-38.85,6.32h-.94a5.07,5.07,0,0,1,0-10.13h.94a5.07,5.07,0,0,1,0,10.13Zm18.47,0h-.93a5.07,5.07,0,0,1,0-10.13h.93a5.07,5.07,0,0,1,0,10.13Z"/></g><g id="_Grupo_31" data-name=" Grupo 31"><path id="_Trazado_40" data-name=" Trazado 40" class="cls-6" d="M313.74,144.24c-3.77,4.42-38,36.37-38,36.37l1.18-19.29,19.94-24.22Z"/><g id="_Grupo_32" data-name=" Grupo 32"><g id="_Grupo_33" data-name=" Grupo 33"><g id="_Grupo_34" data-name=" Grupo 34"><path id="_Trazado_41" data-name=" Trazado 41" class="cls-1" d="M247.63,195.36l11.59-8.28c11.12-7.9,24.29-20.32,24.29-34.6A21.31,21.31,0,0,0,265.44,132c-9.15-1.23-16.68,7.84-17.85,16.56-1.14-9-8.7-20.12-17.85-21.34a15.35,15.35,0,0,0-12.69,3.56,15.51,15.51,0,0,0-5.31,12.13c0,14.31,13.18,30.24,24.21,41.09Z"/></g></g></g><path id="_Trazado_42" data-name=" Trazado 42" class="cls-6" d="M279.17,166.94c-4.66,2.8-12.61,2.9-18,3.14s-12,8.47-7.62,11.8a18.59,18.59,0,0,0,22.16-1.29Z"/><path id="_Trazado_43" data-name=" Trazado 43" class="cls-6" d="M212.35,148.1c-1.28,1-1.65,4.41-.87,8s3.79,9.16,8.07,10.85c2,.79,10.48,1,14.58-3.4,4.34-4.69,4-12.74-2.25-11.31a66.35,66.35,0,0,1-18.07.92A36.49,36.49,0,0,1,212.35,148.1Z"/></g></g></g></g><g id="Character_3-2" data-name="Character 3-2"><g id="Character_2-2" data-name="Character 2-2"><g id="_Grupo_35" data-name=" Grupo 35"><g id="_Grupo_36" data-name=" Grupo 36"><g id="_Grupo_37" data-name=" Grupo 37"><rect id="_Rectángulo_" data-name=" Rectángulo " class="cls-6" x="425.99" y="363.89" width="13.73" height="20.11"/></g><g id="_Grupo_38" data-name=" Grupo 38"><path id="_Trazado_44" data-name=" Trazado 44" class="cls-8" d="M426,377.17v-2c-1.31.58-4.37,12.29-9.82,17.28-4.31,4-10.22,8.56-11.72,13s8.21,7.16,12.27,6.43c4.69-.84,12.84-4.21,14.89-7.25s3-7.65,4.66-9.9,5.49-4.79,6.38-7.4c.5-1.4-.08-4.6-.78-7.26-.64-2.44-1.32-5.13-2.16-4.89v1.5c-1,1.11-3.74,2.21-6.85,2.34C430.9,379.12,426,378.73,426,377.17Z"/></g></g><g id="_Grupo_39" data-name=" Grupo 39"><g id="_Grupo_40" data-name=" Grupo 40"><polygon id="_Trazado_45" data-name=" Trazado 45" class="cls-6" points="379.18 368.61 365.46 369.09 366.63 348.76 380.35 348.28 379.18 368.61"/></g><g id="_Grupo_41" data-name=" Grupo 41"><path id="_Trazado_46" data-name=" Trazado 46" class="cls-8" d="M365.71,364.83c-.73,0-1.27,1-2.79,2.8a29.53,29.53,0,0,1-8.06,5.84c-5.14,2.6-15.14,6.58-19.65,8.62-2.79,1.29-2.71,4.72.22,6.67s10,3.36,18.44,1.4c4.61-1,10.61-5.32,14.42-5.08s10.9.16,13.7-1.78,1.69-6.1.89-9.67c-.86-3.9-2.1-10-3.38-9.73l-.08,1.63c-1.66,2.52-10.14,3-13.77,1.18Z"/></g></g><g id="_Grupo_42" data-name=" Grupo 42"><path id="_Trazado_47" data-name=" Trazado 47" class="cls-12" d="M381.35,106.38c-6.2,6-42.72,25.22-44.72,24.87-3-.42-13.93-11.21-23.27-21.19-1.46-7.59-3.6-17.16-6-22.51A25.65,25.65,0,0,0,302,79.14l.63-2.58L338,110.19s38.79-29.42,44.57-31.11S387.55,100.4,381.35,106.38Z"/><path id="_Trazado_48" data-name=" Trazado 48" class="cls-6" d="M288.82,72.14c-4.73,1.19-8.36,4.41-7.56,9.56.51,3.4,6.09,5.88,9.08,3.3,2.41-2.09,9.63-7.09,12.93-4.53a8.26,8.26,0,0,1,.73,4.92c-.22,2.69,1.15,4.61,1.95,4.48s2.07-4.41,2.19-6.09c.18-2.61-1.29-10.26-12.87-11.8h0A17.28,17.28,0,0,0,288.82,72.14Z"/></g><g id="_Grupo_43" data-name=" Grupo 43"><path id="_Trazado_49" data-name=" Trazado 49" class="cls-6" d="M467.22,157.94c-.3-4.2-7.37-23.23-10.88-31.09l-17.78,8.41L445.37,151l18.43,14.32C468.57,164.51,467.36,159.71,467.22,157.94Z"/></g><g id="_Grupo_44" data-name=" Grupo 44"><path id="_Trazado_50" data-name=" Trazado 50" class="cls-9" d="M432.4,169.34c0,13.19,1.7,98.49,1.7,98.49.32,3.78,5.13,16.27,5.57,33.91.56,19.81,1.14,64.45,1.14,64.45s-6.43,6.42-15.51,0c0,0-15-65.21-19.59-90-2.14-17.12-7.5-66.23-7.5-66.23l-11.15,55.9a128.09,128.09,0,0,1,1.4,19.86c0,9.1-7.9,68.17-7.9,68.17s-7.76,4.74-15.2.26c0,0-4.47-80-4.6-88.27-.15-10.18,7.35-96.57,7.35-96.57Z"/><path id="_Trazado_51" data-name=" Trazado 51" class="cls-8" d="M398.25,210l-1.6-11.94s-10.35-4.78-13.93-8.17c0,0,6.5,8.64,10.6,11l-5,59.15Z"/></g><g id="_Grupo_45" data-name=" Grupo 45"><path id="_Trazado_52" data-name=" Trazado 52" class="cls-7" d="M387.72,77.33c-7.15,0-16.72,6.34-24.8,12.61s-14.79,11.45-14.79,11.45c1.39,7.59,6.2,14.54,11.38,20.23l23-12.54S392.54,88.54,387.72,77.33Z"/><path id="_Trazado_53" data-name=" Trazado 53" class="cls-10" d="M411.73,78c12.31,3,27.93,8,33.43,19.39s13.93,29.9,13.93,29.9a49.74,49.74,0,0,1-20.38,12.12l-6.25-11v40.87c-9.63,10.53-43.18,15.42-64.2,0V102.09c0-10.76,5.93-23.68,22.28-24.64Z"/><path id="_Trazado_54" data-name=" Trazado 54" class="cls-7" d="M432.4,128.47s-6.17-10.76-7.51-13.35l7.51,26Z"/></g><g id="_Grupo_46" data-name=" Grupo 46"><g id="_Grupo_47" data-name=" Grupo 47"><g id="_Grupo_48" data-name=" Grupo 48"><path id="_Trazado_55" data-name=" Trazado 55" class="cls-8" d="M416.35,23a7.31,7.31,0,0,1,6.06,2.14c2.59,2.68,2.06,7.63,0,19l-8,.93Z"/></g><g id="_Grupo_49" data-name=" Grupo 49"><path id="_Trazado_56" data-name=" Trazado 56" class="cls-8" d="M369.51,19.68a12.44,12.44,0,0,1-5-1c-2.46-1.4-3.1,1.41-1.75,3.86a11.48,11.48,0,0,0,9.32,6.23c.07-.35,2.31-6.3,2.31-6.3Z"/></g><g id="_Grupo_50" data-name=" Grupo 50"><path id="_Trazado_57" data-name=" Trazado 57" class="cls-6" d="M412.59,45.11c1.19.71,2.89-1.6,4.36-3.14s6.27-3.67,8.67,1.4-3.1,12.05-6.35,14.32c-3.86,2.7-6.68.59-6.68.59l-.86,19.78s-4.26,10.5-15.81,12.08-9.18-8.06-5.42-12.81V70.15s-6,1.17-8.79.44a13,13,0,0,1-8.55-8.85,70.41,70.41,0,0,1-1.93-32.54c2.92-17.94,23-18.21,34.33-11.11S412.59,45.11,412.59,45.11Z"/></g><g id="_Grupo_51" data-name=" Grupo 51"><path id="_Trazado_58" data-name=" Trazado 58" class="cls-8" d="M412.59,47.07c.6,0,2.87-3.8,4.36-5.16C419,40,416.35,23,416.35,23s2.09-6.46-2-10.75-11.95-3.57-17.72-3.78a51.53,51.53,0,0,1-20.59-4.2c-8.19-3.59-8.8-4-9.75-.4s-1.39,11.9,3.48,17.45l4.06,1.5s2.2,2,9.83,2.9,19.5-.18,21.15-.41c2.21-.31,2.68,1.85,3.87,7.75C409.7,38.26,410.57,47,412.59,47.07Z"/></g><g id="_Grupo_52" data-name=" Grupo 52"><path id="_Trazado_59" data-name=" Trazado 59" class="cls-8" d="M416.34,24.3l7.22-3.89a4,4,0,0,0-2.35-2.09,4,4,0,0,0-3.11.26A4.36,4.36,0,0,0,416.34,24.3Z"/></g><g id="_Grupo_53" data-name=" Grupo 53"><path id="_Trazado_60" data-name=" Trazado 60" class="cls-12" d="M390.5,70.2S401.2,68,404.93,66a12.26,12.26,0,0,0,5.17-5.14,17,17,0,0,1-2.92,6.06C404.39,70.44,390.46,73,390.46,73Z"/></g></g><g id="_Grupo_54" data-name=" Grupo 54"><g id="_Grupo_55" data-name=" Grupo 55"><path id="_Trazado_61" data-name=" Trazado 61" class="cls-8" d="M393.14,42.31a2.13,2.13,0,0,0,.6,1.55,2.16,2.16,0,0,0,1.53.67,2.21,2.21,0,0,0,2.12-1.31,2.25,2.25,0,0,0-.42-2.48,2.23,2.23,0,0,0-3.83,1.57Z"/></g><g id="_Grupo_56" data-name=" Grupo 56"><path id="_Trazado_62" data-name=" Trazado 62" class="cls-8" d="M395.8,33.44,400.38,36a2.81,2.81,0,0,0-1.07-3.67,2.53,2.53,0,0,0-3.51,1.14Z"/></g><g id="_Grupo_57" data-name=" Grupo 57"><path id="_Trazado_63" data-name=" Trazado 63" class="cls-12" d="M393.29,57l-4.89,1.85a2.56,2.56,0,0,0,3.31,1.63A2.81,2.81,0,0,0,393.29,57Z"/></g><g id="_Grupo_58" data-name=" Grupo 58"><path id="_Trazado_64" data-name=" Trazado 64" class="cls-8" d="M373.27,36.15l4.18-3.25a2.53,2.53,0,0,0-3.63-.56A2.81,2.81,0,0,0,373.27,36.15Z"/></g><g id="_Grupo_59" data-name=" Grupo 59"><path id="_Trazado_65" data-name=" Trazado 65" class="cls-8" d="M375.31,41.74a2.14,2.14,0,1,0,2.14-2.25A2.21,2.21,0,0,0,375.31,41.74Z"/></g><g id="_Grupo_60" data-name=" Grupo 60"><polygon id="_Trazado_66" data-name=" Trazado 66" class="cls-12" points="386.23 39.7 385.52 52.67 378.79 50.36 386.23 39.7"/></g></g></g><g id="_Grupo_61" data-name=" Grupo 61"><g id="_Grupo_62" data-name=" Grupo 62"><g id="_Grupo_63" data-name=" Grupo 63"><path id="_Trazado_67" data-name=" Trazado 67" class="cls-1" d="M361.91,179.69l9.2-4.94c8.79-4.7,19.28-12.69,19.28-24,0-7.94-6.39-16.36-14.29-18.81-7.26-2.26-13.25,3.86-14.17,10.63-.9-7.34-6.89-17.19-14.16-19.45-7.88-2.46-14.28,2-14.28,9.92,0,11.35,10.45,25.85,19.22,36Z"/></g></g></g><g id="_Grupo_64" data-name=" Grupo 64"><path id="_Trazado_68" data-name=" Trazado 68" class="cls-6" d="M463.8,165.24l-18.43-14.32s-37.15,6.08-41.51,6.42-8.2-3-9.86-7.27-4.26-3.84-4.26-3.84a16.72,16.72,0,0,1,.41,7.41c-1.5,1.62-10.09,3.25-15.89,1.27s-14.19.9-9,8.83,15.33,8.87,22.29,8.87a73.53,73.53,0,0,0,8.77-.59c2.28-.29,4.55-.53,6.83-.69C417.58,170.3,457.26,167.31,463.8,165.24Z"/></g></g></g></g><g id="Character_1" data-name="Character 1"><g id="Character_1-2" data-name="Character 1-2"><g id="Character2"><path id="_Trazado_69" data-name=" Trazado 69" class="cls-14" d="M133.51,78.33c12.72-2.32,13.28-.57,53.33,21.83,0,0,47.18-19.13,52.77-22.37s13.61-5.39,19.58-1.74a15.48,15.48,0,0,0-4.27.73c-.68.34-3,1.51-2.68,2.56.11.45.66.59,1.12.61a11.43,11.43,0,0,0,2.92-.14c1.12-.19,2.45-.47,3.22.35a2,2,0,0,1-.12,2.55,6,6,0,0,1-2.26,1.55l-4.2,1.94A15.13,15.13,0,0,0,250,87.81c-.83.62-1.53,1.4-2.38,2-2.66,1.83-5.77.88-8.56,2.07-.47.2-1,.45-1.4.66-2.05,1-4,2.12-6,3.28-5.7,3.39-11.28,7-16.88,10.55s-10.89,7-16.51,10.16a26.92,26.92,0,0,1-6.59,3.13c-7,1.7-47.17-15.77-47.17-15.77Z"/><g id="_Grupo_65" data-name=" Grupo 65"><g id="_Grupo_66" data-name=" Grupo 66"><g id="_Grupo_67" data-name=" Grupo 67"><g id="_Grupo_68" data-name=" Grupo 68"><path id="_Rectángulo_2" data-name=" Rectángulo 2" class="cls-1" d="M117.76,10.15h9.54a26.49,26.49,0,0,1,26.41,26.5v4.42A26.33,26.33,0,0,1,127.45,67.4h-9.79A26.32,26.32,0,0,1,91.27,41.07V36.65a26.48,26.48,0,0,1,26.49-26.5Z"/></g><g id="_Grupo_69" data-name=" Grupo 69"><path id="_Trazado_70" data-name=" Trazado 70" class="cls-8" d="M103.84,380v-2c.8,2.36,4.48,12.5,10,17.59,4.43,4,10.48,8.71,12,13.21s-8.39,6.27-12.58,5.59c-4.82-.85-11-3.59-14.44-7.74-2.37-2.94-3.88-6.41-5.59-8.7s-5.59-4.88-6.55-7.54c-.5-1.39.1-4.67.82-7.38.64-2.47,1.39-5.21,2.19-5v1.53c1,1.13,3.85,2.26,7,2.37C98.88,382,103.86,381.56,103.84,380Z"/></g><g id="_Grupo_70" data-name=" Grupo 70"><path id="_Trazado_71" data-name=" Trazado 71" class="cls-14" d="M117.93,399.12c-1.4-1.23-2.8-2.42-4-3.57-3.88-3.55-6.85-9.57-8.56-13.69a19.3,19.3,0,0,1-1.48-7.39v-8H89.79v13h0v.34h.07c.68,2.92,7.13,10.68,10.8,15.74,2.44,3.4,7.11,7.72,12.69,8.46C118.64,404.8,121.34,403.13,117.93,399.12Z"/></g><g id="_Grupo_71" data-name=" Grupo 71"><path id="_Trazado_72" data-name=" Trazado 72" class="cls-8" d="M158.66,366.13v-2c.79,2.36,4.47,12.59,10.05,17.59,4.43,4,10.47,8.71,12,13.23s-8.39,6.25-12.59,5.52c-4.82-.85-11-3.58-14.43-7.74-2.38-2.93-3.9-6.39-5.59-8.7s-5.6-4.87-6.53-7.54c-.52-1.4.08-4.67.79-7.37.66-2.49,1.4-5.21,2.21-5v1.54c1,1.13,3.85,2.25,7,2.38C153.69,368.11,158.68,367.7,158.66,366.13Z"/></g><g id="_Grupo_72" data-name=" Grupo 72"><path id="_Trazado_73" data-name=" Trazado 73" class="cls-14" d="M172.72,385.28c-1.4-1.23-2.8-2.44-4-3.58-3.91-3.55-6.87-9.58-8.58-13.69a19.77,19.77,0,0,1-1.47-7.4v-8h-14v13h0V366h0c.67,2.92,7.12,10.7,10.78,15.76,2.46,3.4,7.13,7.72,12.71,8.46C173.45,390.94,176.16,389.28,172.72,385.28Z"/></g><g id="_Grupo_73" data-name=" Grupo 73"><path id="_Trazado_74" data-name=" Trazado 74" class="cls-9" d="M92.59,161.63C81.69,185.4,93,269.22,93,269.22c-.32,3.86-4.74,11.47-6.38,28.46-1.94,20.07,3.05,70.48,3.05,70.48a15.17,15.17,0,0,0,14.19.56s13.4-75.92,15.92-95.88c2.19-17.42,6.42-55.73,6.42-55.73l12,55.64a103,103,0,0,0-3.79,17.19c-1.14,11.73,10.24,66.41,10.24,66.41s4.85,1.79,14,.43c0,0,4-72.56,5.07-86.69,1.79-23.77-4.52-97.88-8.88-111.86Z"/></g><g id="_Grupo_74" data-name=" Grupo 74"><path id="_Trazado_75" data-name=" Trazado 75" class="cls-8" d="M126.18,217.11,129.72,195s15-3.11,21.74-9.48c0,0-7.12,8.85-17.69,11.76l-4,17,7,51.52Z"/></g><g id="_Grupo_75" data-name=" Grupo 75"><path id="_Trazado_76" data-name=" Trazado 76" class="cls-10" d="M111.8,79h0c-14,1-14.93,7.7-18.43,15.07a23.81,23.81,0,0,0-.67,18l9.79,28.16s-4.55,11-9.79,21.43c24.43,13.63,54.93,6.46,62.27-3.49.31-2.11-1.58-18.61-2.79-29.36,4.3-10.79,5.44-17.63,3.62-24.76-3.37-13.24-16.45-26.14-22.24-25.67Z"/></g><path id="_Trazado_77" data-name=" Trazado 77" class="cls-7" d="M103.4,159.44s2.88-11.45,3.91-14a4.79,4.79,0,0,1,4.94-3.28h0a14.26,14.26,0,0,1-6.1-9.09l-3-14.89s5.51-17.5,5-23.48l-14,.81-1.8,1.26a24.46,24.46,0,0,0,.39,15.2l9.79,28.16s-4.55,11-9.79,21.42c18,10,39.3,8.8,52.19,3.45Z"/><g id="_Grupo_76" data-name=" Grupo 76"><path id="_Trazado_78" data-name=" Trazado 78" class="cls-14" d="M74.83,151.29c.08-1.1,4.9-30.76,8.74-50.73,2.57-13.47,7.94-18.41,18.46-20l3.73-.59c5,16.4,1.55,23.77-5,35.05l-6.21,30-15,15.2C74.31,159.11,74.71,152.84,74.83,151.29Z"/></g><g id="_Grupo_77" data-name=" Grupo 77"><path id="_Trazado_79" data-name=" Trazado 79" class="cls-14" d="M143.52,22.79c3.3,2,7.38,10.25,7,27.66-.35,14.75-5.13,18.4-7.52,19.45s-7,.41-11.54-.33v8.85s6.22,7.22,5.83,11.28-9,5-14.81,1a37.56,37.56,0,0,1-9.55-10V59.36s-3,4-8,.75-5.16-11.48-2.28-14.41,9.13-2,10.29,2c0,0,7.17.27,16.78-5a26.9,26.9,0,0,0,13.82-20Z"/></g><g id="_Grupo_78" data-name=" Grupo 78"><path id="_Trazado_80" data-name=" Trazado 80" class="cls-8" d="M134,46.75a1.86,1.86,0,1,1-2-1.84,1.88,1.88,0,0,1,2,1.84Z"/></g><g id="_Grupo_79" data-name=" Grupo 79"><path id="_Trazado_81" data-name=" Trazado 81" class="cls-15" d="M134.51,59.26l4.31,1.4A2.23,2.23,0,0,1,136,62.2a2.38,2.38,0,0,1-1.51-2.94Z"/></g><g id="_Grupo_80" data-name=" Grupo 80"><path id="_Trazado_82" data-name=" Trazado 82" class="cls-8" d="M149.24,41.05l-3.76-2.6a2.17,2.17,0,0,1,1.42-1,2.23,2.23,0,0,1,1.7.35A2.4,2.4,0,0,1,149.24,41.05Z"/></g><g id="_Grupo_81" data-name=" Grupo 81"><path id="_Trazado_83" data-name=" Trazado 83" class="cls-8" d="M148.37,45.4a1.9,1.9,0,1,1-.6-1.32A1.86,1.86,0,0,1,148.37,45.4Z"/></g><g id="_Grupo_82" data-name=" Grupo 82"><polygon id="_Trazado_84" data-name=" Trazado 84" class="cls-15" points="139.62 44.35 139.91 55.51 145.78 53.7 139.62 44.35"/></g><g id="_Grupo_83" data-name=" Grupo 83"><path id="_Trazado_85" data-name=" Trazado 85" class="cls-15" d="M131.44,69.57c-4.74-.63-14.52-3.43-16-7.29a10,10,0,0,0,3.41,4.92c2.92,2.5,12.59,5.32,12.59,5.32Z"/></g></g></g></g><g id="_Grupo_84" data-name=" Grupo 84"><g id="_Grupo_85" data-name=" Grupo 85"><g id="_Grupo_86" data-name=" Grupo 86"><path id="_Trazado_86" data-name=" Trazado 86" class="cls-1" d="M177.33,177.38l-8.89-4.74c-8.49-4.51-18.61-12.19-18.61-23.07,0-7.62,6.16-15.71,13.79-18.06,7-2.17,12.81,3.7,13.69,10.2.88-7,6.67-16.51,13.67-18.68,7.63-2.34,13.81,1.92,13.81,9.54,0,10.89-10.1,24.81-18.57,34.57Z"/></g></g></g><g id="_Grupo_87" data-name=" Grupo 87"><path id="_Trazado_87" data-name=" Trazado 87" class="cls-14" d="M79.48,160.13l15-15.2s37.94,8.39,42.22,8.8,7.67-3.53,10.68-6.91a3.89,3.89,0,0,1,3-1.4,9.92,9.92,0,0,0-.37,4.19c.64,1.79,10.08,3.71,15.79,1.78s14,.87,8.82,8.63-15,8.64-21.94,8.65a73.13,73.13,0,0,1-8.63-.57q-3.33-.43-6.7-.69C123.27,166.37,85.9,162.14,79.48,160.13Z"/></g><path id="_Trazado_88" data-name=" Trazado 88" class="cls-1" d="M95.16,13.5c6.1,2.55,4.73,7.78,2.18,13.87S92,38.12,85.93,35.56A12,12,0,1,1,95.16,13.5Z"/><path id="_Trazado_89" data-name=" Trazado 89" class="cls-4" d="M100.53,19l2.14-10.18a5,5,0,0,0-6.22,3.83A5.46,5.46,0,0,0,100.53,19Z"/></g></g></g></g></g></svg>